<svg xmlns="http://www.w3.org/2000/svg" viewBox="0 0 900 680" fill="none"><defs><linearGradient id="sky" x2="0" y2="680" gradientUnits="userSpaceOnUse"><stop stop-color="#e9dbbd"/><stop offset="1" stop-color="#faf0d7"/></linearGradient></defs><path fill="url(#sky)" d="M0 0h900v680H0z"/><circle cx="685" cy="134" r="58" fill="#FF9515" opacity=".8"/><path d="m0 330 180-145 137 85 151-155 147 139 135-83 150 115v394H0" fill="#a3b4aa"/><path d="m0 385 156-118 207 145 164-125 196 92 177-58v359H0" fill="#6f9185"/><path d="M0 407h900v273H0" fill="#8db4b0"/><path d="M0 434h260m120 10h430M130 478h380m74 30h240M40 539h280m43 33h380M150 611h430" stroke="#c9d9cc" stroke-width="2"/><path d="M0 564c111-27 188 28 257 69l61 47H0" fill="#395a47"/><path d="M790 498c45-54 76-73 110-80v262H634" fill="#567963"/><path d="m420 543 97 12-22 17h-58z" fill="#a45e3d"/><path d="m469 478 2 74" stroke="#4f5a49" stroke-width="3"/><path d="m472 488 34 56h-34z" fill="#f4e5c4"/><path d="m85 610 23-104 23 104m19 15 31-138 31 138" fill="#294537"/></svg>